<mxfile host="app.diagrams.net" modified="2023-11-08T11:51:40.331Z" agent="Mozilla/5.0 (Windows NT 10.0; Win64; x64) AppleWebKit/537.36 (KHTML, like Gecko) Chrome/108.0.0.0 Safari/537.36" etag="KwKlKd6dNPq-n8943_xm" version="22.0.8" type="github">
  <diagram name="Page-1" id="a-U4SMHcvcrE5j3UWlay">
    <mxGraphModel dx="1260" dy="746" grid="1" gridSize="10" guides="1" tooltips="1" connect="1" arrows="1" fold="1" page="1" pageScale="1" pageWidth="827" pageHeight="1169" math="0" shadow="0">
      <root>
        <mxCell id="0" />
        <mxCell id="1" parent="0" />
        <mxCell id="JKFVhIfQSSrAUwEqMuXe-3" style="edgeStyle=orthogonalEdgeStyle;rounded=0;orthogonalLoop=1;jettySize=auto;html=1;exitX=0.5;exitY=0.5;exitDx=0;exitDy=0;exitPerimeter=0;entryX=0;entryY=0.5;entryDx=0;entryDy=0;" edge="1" parent="1" source="JKFVhIfQSSrAUwEqMuXe-1" target="JKFVhIfQSSrAUwEqMuXe-2">
          <mxGeometry relative="1" as="geometry" />
        </mxCell>
        <mxCell id="JKFVhIfQSSrAUwEqMuXe-1" value="Actor" style="shape=umlActor;verticalLabelPosition=bottom;verticalAlign=top;html=1;outlineConnect=0;" vertex="1" parent="1">
          <mxGeometry x="60" y="330" width="30" height="60" as="geometry" />
        </mxCell>
        <mxCell id="JKFVhIfQSSrAUwEqMuXe-2" value="数据" style="rounded=0;whiteSpace=wrap;html=1;" vertex="1" parent="1">
          <mxGeometry x="160" y="330" width="120" height="60" as="geometry" />
        </mxCell>
      </root>
    </mxGraphModel>
  </diagram>
</mxfile>
